# xmcd CD database file
#
# Track frame offsets:
#	150
#	21144
#	36219
#	54819
#	77900
#	99635
#	121936
#	143762
#	175188
#	198363
#	218164
#	245615
#	267440
#
# Disc length: 3856 seconds
#
# Revision: 0
# Processed by: cddbd v1.5.2PL0 Copyright (c) Steve Scherf et al.
# Submitted via: CDex 1.51
#
DISCID=b10f0e0d
DTITLE=Eddie Higgins Trio - Essential Ballads Best
DYEAR=2009
DGENRE=Jazz
TTITLE0=Haunted Heart 
TTITLE1=Again
TTITLE2=Yellow Days 
TTITLE3=As Time Goes By 
TTITLE4=Blame It On My Youth 
TTITLE5=Over The Rainbow 
TTITLE6=Tristeza De Amor 
TTITLE7=Willow Weep For Me 
TTITLE8=Moonlight Serenade 
TTITLE9=But Beautiful 
TTITLE10=Ghost Of A Chance 
TTITLE11=Ghost Of A Chance 
TTITLE12=You Are Too Beautiful 
EXTD=YEAR: 2009
EXTT0=
EXTT1=
EXTT2=
EXTT3=
EXTT4=
EXTT5=
EXTT6=
EXTT7=
EXTT8=
EXTT9=
EXTT10=
EXTT11=
EXTT12=
PLAYORDER=
